<svg width="800" height="600" xmlns="http://www.w3.org/2000/svg">
 <g id="Layer_1">
  <title>Layer 1</title>
  <path fill="#fff" stroke="#000" opacity="NaN" d="m724,569l-2,-79l-2,-88l-1,-71l-1,-82l-9,-43l-19,-29l-25,-18l-21,-15l-37,-15l-32,-5l-43,-2l-50,2l-52,5l-46,8l-52,16l-51,24l-56,35l-58,44l-18,29l-12,44l5,37l13,39l27,30l30,18l65,10l59,-3l70,-14l51,-34l20,-19l19,-36l8,-27l0,-34l-10,-34l-17,-22l-22,-11l-43,-8l-52,3l-55,3l-50,1l-51,2l-45,4l-33,12l-19,29l-10,48l-7,58l-12,55l-11,50l-8,31" id="svg_1"/>
  <path fill="#fff" stroke="#000" opacity="NaN" d="m602,567l60,-37.5l37,-42.5l17,-73l3,-85l-1,-82l-9,-39l-18,-31l-26,-20l-21,-15l-37,-15l-32,-5l-43,-2l-50,2l-52,5l-46,8l-52,16l-51,24l-56,35l-58,44l-18,29l-12,44l5,37l13,39l27,30l30,18l65,10l59,-3l70,-14l51,-34l20,-19l19,-36l8,-27l0,-34l-10,-34l-17,-22l-22,-11l-43,-8l-52,3l-55,3l-50,1l-51,2l-45,4l-33,12l-19,29l-10,48l7,74l9,52l13,45l18,26" id="svg_2"/>
  <path fill="#fff" stroke="#000" opacity="NaN" d="m492,565l97,-42.5l73,-48.5l40,-67l17,-78l-1,-82l-9,-39l-18,-31l-26,-20l-21,-15l-37,-15l-32,-5l-43,-2l-50,2l-52,5l-46,8l-52,16l-51,24l-56,35l-58,44l-18,29l-12,44l5,37l13,39l27,30l30,18l65,10l59,-3l70,-14l51,-34l20,-19l19,-36l8,-27l0,-34l-10,-34l-17,-22l-22,-11l-43,-8l-52,3l-55,3l-50,1l-51,2l-45,4l-33,12l-19,29l-10,48l35,85l25,49l36,35l47,29" id="svg_3"/>
  <path fill="#fff" stroke="#000" opacity="NaN" d="m375,565l133,-53.5l85,-48.5l60,-59l50,-78l15,-79l-9,-39l-18,-31l-26,-20l-21,-15l-37,-15l-32,-5l-43,-2l-50,2l-52,5l-46,8l-52,16l-51,24l-56,35l-58,44l-18,29l-12,44l5,37l13,39l27,30l30,18l65,10l59,-3l70,-14l51,-34l20,-19l19,-36l8,-27l0,-34l-10,-34l-17,-22l-22,-11l-43,-8l-52,3l-55,3l-50,1l-51,2l-45,4l-33,12l-19,29l4,61l34,66l23,39l95,52l68,26" id="svg_4"/>
  <path fill="#fff" stroke="#000" opacity="NaN" d="m246,569l200,-102.5l105,-10.5l76,-59l47,-74l35,-78l0,-37l-18,-31l-26,-20l-21,-15l-37,-15l-32,-5l-43,-2l-50,2l-52,5l-46,8l-52,16l-51,24l-56,35l-58,44l-18,29l-12,44l5,37l15,42l27,28l30,19l66,6l56,-1l70,-14l51,-34l20,-19l19,-36l8,-27l0,-34l-10,-34l-17,-22l-22,-11l-43,-8l-52,3l-55,3l-50,1l-51,2l-45,4l-33,12l-19,29l20,51l33,60l48,30l60,14l54.5,3.75l54.5,-5.25l39.5,-14.25l31.75,-27.625l14.375,-40.8125l1.6875,-23.90625l-6.15625,-42.45313l-8.07813,-23.22656l-16.53906,-12.61328l-16.76953,-1.30664l-15.88477,4.34668l-7.44238,6.67334l-1.22119,19.33667l4.3894,7.66833l8.6947,7.33417l9.84735,1.66708l11.92368,-0.16647l8.46182,-6.08322l6.73093,-12.0416l-1.13455,-14.52081l-6.56726,-4.26041l-14.56726,-1.26041" id="svg_5"/>
 </g>

</svg>