<svg width="800" height="600" xmlns="http://www.w3.org/2000/svg">
 <g id="Layer_1">
  <title>Layer 1</title>
  <path id="svg_1" d="m282,548l0,-41l0,-34l-1,-36l-1,-30l-2,-34l-2,-32l-5,-41l-6,-36l-4,-28l-7,-37l-10,-28l-12,-29l-14,-22l-18,-15l-15,-14l-27,-13l-28,-5l-35,-2l-30,0l-38,-1" opacity="NaN" stroke="#000" fill="#fff"/>
  <path id="svg_2" d="m234,544l0,-49l0,-36l-4,-44l-3,-48l-4,-34l-3,-41l-6,-34l-7,-32l-11,-37l-13,-25l-23,-22l-38,-16l-28,-5l-47,0l-17,-1" opacity="NaN" stroke="#000" fill="#fff"/>
  <path id="svg_3" d="m178,543l0,-60l-2,-46l-4,-53l-4,-55l-5,-49l-7,-56l-24,-33l-31,-16l-35,-7l-33,1" opacity="NaN" stroke="#000" fill="#fff"/>
  <path id="svg_4" d="m116,539l0,-56l-3,-59l-5,-63l-3,-50l-6,-41l-12,-30l-10,-8l-14,-3l-30,0" opacity="NaN" stroke="#000" fill="#fff"/>
  <path id="svg_5" d="m336,543l0,-97l-5,-82l-5,-71l-9,-74l-11,-60l-22,-51l-37,-45l-46,-34" opacity="NaN" stroke="#000" fill="#fff"/>
  <path id="svg_6" d="m400,540l-3,-95l-2,-72l-3,-53l-4,-64l-3,-52l-2,-58l-6,-46l-3,-49l-2,-34" opacity="NaN" stroke="#000" fill="#fff"/>
  <path id="svg_7" d="m458,538l-2,-80l-2,-69l-1,-60l0,-59l2,-46l4,-46l8,-43l21,-43l30,-37l30,-27" opacity="NaN" stroke="#000" fill="#fff"/>
  <path id="svg_8" d="m523,536l-1,-83l-2,-62l1,-68l2,-63l6,-54l11,-39l18,-36l23,-32l23,-21l35,-13l55,-3l47,-1l32,0" opacity="NaN" stroke="#000" fill="#fff"/>
  <path id="svg_9" d="m590,535l0,-57l0,-54l0,-53l-1,-45l5,-49l8,-49l8,-24l22,-47l16,-13l26,-11l43,-5l34,1l28,-1" opacity="NaN" stroke="#000" fill="#fff"/>
  <path id="svg_10" d="m660,530l-1,-71l-2,-58l-2,-50l3,-53l7,-50l13,-36l17,-15l30,-9l38,3l17,-2" opacity="NaN" stroke="#000" fill="#fff"/>
  <path id="svg_11" d="m726,527l-1,-65l-2,-53l-2,-35l1,-48l2,-35l15,-37l23,-8l20,0" opacity="NaN" stroke="#000" fill="#fff"/>
 </g>
</svg>